# xmcd CD database file
#
# Track frame offsets:
#	150
#	21112
#	40700
#
# Disc length: 821 seconds
#
# Revision: 0
# Processed by: cddbd v1.5.1PL0 Copyright (c) Steve Scherf et al.
# Submitted via: CDex 1.51
#
DISCID=18033303
DTITLE=友部正人 - Love Me Tender
DYEAR=1992
DGENRE=JPop
TTITLE0=Love Me Tender
TTITLE1=Don't Think Twice,Its's Alrigt
TTITLE2=Jersey Girl
EXTD=YEAR: 1992
EXTT0=
EXTT1=
EXTT2=
PLAYORDER=
